<?xml version="1.0" encoding="utf-8"?>
<!-- Generator: Adobe Illustrator 16.0.0, SVG Export Plug-In . SVG Version: 6.00 Build 0)  -->
<!DOCTYPE svg PUBLIC "-//W3C//DTD SVG 1.1//EN" "http://www.w3.org/Graphics/SVG/1.1/DTD/svg11.dtd">
<svg version="1.1" id="Layer_1" xmlns="http://www.w3.org/2000/svg" xmlns:xlink="http://www.w3.org/1999/xlink" x="0px" y="0px"
	 width="40px" height="40px" viewBox="0 0 40 40" enable-background="new 0 0 40 40" xml:space="preserve">
<g>
	<path fill="#FFFFFF" d="M12.107,22.463c-2.1,3.239-2.86,6.022-1.719,7.148c1.126,1.142,3.908,0.38,7.148-1.719
		c-0.958-0.791-1.916-1.644-2.859-2.57C13.75,24.379,12.898,23.421,12.107,22.463z"/>
	<path fill="#FFFFFF" d="M14.678,14.553c0.943-0.928,1.901-1.779,2.859-2.57c-3.24-2.099-6.022-2.86-7.148-1.719
		c-1.142,1.126-0.381,3.908,1.719,7.148C12.898,16.455,13.75,15.496,14.678,14.553z"/>
	<path fill="#FFFFFF" d="M25.447,25.322c-0.944,0.927-1.902,1.779-2.86,2.57c3.24,2.099,6.023,2.86,7.149,1.719
		c1.141-1.126,0.38-3.909-1.719-7.148C27.227,23.421,26.374,24.379,25.447,25.322z"/>
	<path fill="#FFFFFF" d="M33.188,6.813H6.813v26.375h26.375V6.813z M31.896,31.771c-2.175,2.175-6.892,1.201-11.834-2.038
		c-4.943,3.239-9.659,4.213-11.834,2.038s-1.201-6.891,2.038-11.834c-3.239-4.943-4.213-9.659-2.038-11.834
		s6.891-1.201,11.834,2.038c4.942-3.239,9.659-4.213,11.834-2.038s1.201,6.891-2.038,11.834
		C33.098,24.881,34.071,29.597,31.896,31.771z"/>
	<path fill="#FFFFFF" d="M26.192,19.938c-0.867-1.064-1.841-2.16-2.905-3.225s-2.16-2.039-3.225-2.905
		c-1.065,0.866-2.16,1.841-3.226,2.905c-1.063,1.064-2.038,2.16-2.904,3.225c0.866,1.065,1.841,2.16,2.904,3.225
		c1.065,1.064,2.16,2.038,3.226,2.905c1.064-0.867,2.16-1.841,3.225-2.905S25.325,21.003,26.192,19.938z M21.139,21.014
		c-0.286,0.285-0.674,0.444-1.076,0.444c-0.403,0-0.79-0.159-1.076-0.444c-0.285-0.286-0.445-0.673-0.445-1.076
		c0-0.402,0.16-0.79,0.445-1.076c0.286-0.285,0.673-0.445,1.076-0.445c0.402,0,0.79,0.16,1.076,0.445
		c0.284,0.286,0.444,0.674,0.444,1.076C21.583,20.341,21.423,20.728,21.139,21.014z"/>
	<path fill="#FFFFFF" d="M22.587,11.982c0.958,0.791,1.916,1.643,2.86,2.57c0.927,0.943,1.779,1.902,2.57,2.859
		c2.099-3.24,2.859-6.022,1.719-7.148C28.61,9.123,25.827,9.883,22.587,11.982z"/>
	<path fill="#2A6E55" d="M20.063,18.416c-0.403,0-0.79,0.16-1.076,0.445c-0.285,0.286-0.445,0.674-0.445,1.076
		c0,0.403,0.16,0.79,0.445,1.076c0.286,0.285,0.673,0.444,1.076,0.444c0.402,0,0.79-0.159,1.076-0.444
		c0.284-0.286,0.444-0.673,0.444-1.076c0-0.402-0.16-0.79-0.444-1.076C20.853,18.576,20.465,18.416,20.063,18.416z"/>
	<path fill="#2A6E55" d="M31.896,8.104c-2.175-2.175-6.892-1.201-11.834,2.038c-4.943-3.239-9.659-4.213-11.834-2.038
		s-1.201,6.891,2.038,11.834c-3.239,4.943-4.213,9.659-2.038,11.834s6.891,1.201,11.834-2.038c4.942,3.239,9.659,4.213,11.834,2.038
		s1.201-6.891-2.038-11.834C33.098,14.994,34.071,10.278,31.896,8.104z M10.389,10.264c1.126-1.141,3.908-0.38,7.148,1.719
		c-0.958,0.791-1.916,1.643-2.859,2.57c-0.928,0.943-1.779,1.902-2.57,2.859C10.008,14.172,9.247,11.39,10.389,10.264z
		 M10.389,29.611c-1.142-1.126-0.381-3.909,1.719-7.148c0.791,0.958,1.643,1.916,2.57,2.859c0.943,0.927,1.901,1.779,2.859,2.57
		C14.297,29.991,11.515,30.753,10.389,29.611z M16.837,23.162c-1.063-1.064-2.038-2.159-2.904-3.225
		c0.866-1.064,1.841-2.16,2.904-3.225c1.065-1.064,2.16-2.039,3.226-2.905c1.064,0.866,2.16,1.841,3.225,2.905
		s2.038,2.16,2.905,3.225c-0.867,1.065-1.841,2.16-2.905,3.225s-2.16,2.038-3.225,2.905C18.997,25.2,17.902,24.227,16.837,23.162z
		 M29.736,29.611c-1.126,1.142-3.909,0.38-7.149-1.719c0.958-0.791,1.916-1.644,2.86-2.57c0.927-0.943,1.779-1.901,2.57-2.859
		C30.116,25.702,30.877,28.485,29.736,29.611z M28.018,17.412c-0.791-0.957-1.644-1.916-2.57-2.859
		c-0.944-0.928-1.902-1.779-2.86-2.57c3.24-2.099,6.023-2.86,7.149-1.719C30.877,11.39,30.116,14.172,28.018,17.412z"/>
</g>
</svg>
