<?xml version="1.0" encoding="utf-8"?>
<!-- Generator: Adobe Illustrator 16.0.0, SVG Export Plug-In . SVG Version: 6.00 Build 0)  -->
<!DOCTYPE svg PUBLIC "-//W3C//DTD SVG 1.1//EN" "http://www.w3.org/Graphics/SVG/1.1/DTD/svg11.dtd">
<svg version="1.1" id="Layer_1" xmlns="http://www.w3.org/2000/svg" xmlns:xlink="http://www.w3.org/1999/xlink" x="0px" y="0px"
	 width="40px" height="40px" viewBox="0 0 40 40" enable-background="new 0 0 40 40" xml:space="preserve">
<g>
	<path fill="#2A6E55" d="M22.355,30.654V12.246c0-0.423-0.172-0.829-0.48-1.129c-0.311-0.299-0.729-0.467-1.165-0.467h-2.067v-2.4
		h-7.429v2.4H9.146c-0.437,0-0.855,0.168-1.165,0.467c-0.309,0.3-0.481,0.706-0.481,1.129v18.408c0,0.876,0.743,1.596,1.646,1.596
		H20.71C21.613,32.25,22.355,31.53,22.355,30.654z M19.818,27.45H9.914l0.062-14.4h9.905L19.818,27.45z"/>
	<polygon fill="#2A6E55" points="29.786,19.05 29.786,10.65 23.596,22.65 27.311,22.65 27.311,32.25 33.5,19.05 	"/>
</g>
</svg>
