<?xml version="1.0" encoding="utf-8"?>
<!-- Generator: Adobe Illustrator 16.0.0, SVG Export Plug-In . SVG Version: 6.00 Build 0)  -->
<!DOCTYPE svg PUBLIC "-//W3C//DTD SVG 1.1//EN" "http://www.w3.org/Graphics/SVG/1.1/DTD/svg11.dtd">
<svg version="1.1" id="Layer_2" xmlns="http://www.w3.org/2000/svg" xmlns:xlink="http://www.w3.org/1999/xlink" x="0px" y="0px"
	 width="40px" height="40px" viewBox="0 0 40 40" enable-background="new 0 0 40 40" xml:space="preserve">
<path fill="#2A6E55" d="M33.5,19.05c-1.092,0-2.184,0-3.275,0c-0.239,0-0.438,0.106-0.438-0.15c0-0.452,0-0.903,0-1.354
	c0-2.298,0-4.597,0-6.895c-2.063,4-4.127,8-6.19,12c1.198,0,2.397,0,3.596,0c0.263,0,0.119,1.874,0.119,2.141
	c0,2.486,0,4.973,0,7.459C29.374,27.85,31.437,23.45,33.5,19.05z"/>
<path fill="#2A6E55" d="M20.71,10.65c-0.582,0-1.163,0-1.744,0c-0.584,0-0.323-0.695-0.323-1.2c0-0.15,0.08-1.2-0.062-1.2
	c-0.471,0-0.941,0-1.411,0c-1.548,0-3.095,0-4.643,0c-0.417,0-0.834,0-1.252,0c-0.139,0-0.062,1.233-0.062,1.399
	c0,0.497,0.23,1.001-0.323,1.001c-0.665,0-1.409-0.097-2.067,0.031C7.531,10.931,7.5,12.074,7.5,13.092c0,2.687,0,5.374,0,8.06
	c0,2.789,0,5.579,0,8.368c0,0.679-0.115,1.501,0.319,2.074c0.64,0.843,1.811,0.655,2.74,0.655c2.957,0,5.914,0,8.87,0
	c0.982,0,2.184,0.173,2.741-0.864c0.298-0.555,0.185-1.361,0.185-1.969c0-3.602,0-7.204,0-10.806c0-1.636,0-3.272,0-4.908
	C22.355,12.468,22.527,10.65,20.71,10.65z M19.818,27.45c-3.301,0-6.603,0-9.904,0c0.02-4.486,0.039-8.973,0.058-13.459
	c0.001-0.293-0.175-0.941,0.184-0.941c1.039,0,2.078,0,3.117,0c2.203,0,4.405,0,6.607,0C19.86,17.85,19.839,22.65,19.818,27.45z"/>
</svg>
