<?xml version="1.0" encoding="utf-8"?>
<!-- Generator: Adobe Illustrator 16.0.0, SVG Export Plug-In . SVG Version: 6.00 Build 0)  -->
<!DOCTYPE svg PUBLIC "-//W3C//DTD SVG 1.1//EN" "http://www.w3.org/Graphics/SVG/1.1/DTD/svg11.dtd">
<svg version="1.1" id="Layer_1" xmlns="http://www.w3.org/2000/svg" xmlns:xlink="http://www.w3.org/1999/xlink" x="0px" y="0px"
	 width="40px" height="40px" viewBox="0 0 40 40" enable-background="new 0 0 40 40" xml:space="preserve">
<g>
	<polygon fill="#FFFFFF" points="9.914,27.45 19.818,27.45 19.881,13.05 9.976,13.05 	"/>
	<path fill="#FFFFFF" d="M7.5,30.654V12.246c0-0.423,0.173-0.829,0.481-1.129c0.31-0.299,0.729-0.467,1.165-0.467h2.067v-2.4h7.429
		v2.4h2.067c0.437,0,0.855,0.168,1.165,0.467c0.309,0.3,0.481,0.706,0.481,1.129v18.408c0,0.876-0.743,1.596-1.646,1.596h6.6v-9.6
		h-3.715l6.191-12v8.399H33.5l-6.19,13.2h6.524V7.75H6.167v24.5h2.979C8.243,32.25,7.5,31.53,7.5,30.654z"/>
	<path fill="#2A6E55" d="M22.356,30.654V12.246c0-0.423-0.173-0.829-0.481-1.129c-0.31-0.299-0.729-0.467-1.165-0.467h-2.067v-2.4
		h-7.429v2.4H9.146c-0.437,0-0.855,0.168-1.165,0.467c-0.309,0.3-0.481,0.706-0.481,1.129v18.408c0,0.876,0.743,1.596,1.646,1.596
		H20.71C21.613,32.25,22.356,31.53,22.356,30.654z M19.818,27.45H9.914l0.062-14.4h9.905L19.818,27.45z"/>
	<polygon fill="#2A6E55" points="29.786,19.05 29.786,10.65 23.595,22.65 27.31,22.65 27.31,32.25 33.5,19.05 	"/>
</g>
</svg>
