<?xml version="1.0" encoding="utf-8"?>
<!-- Generator: Adobe Illustrator 16.0.0, SVG Export Plug-In . SVG Version: 6.00 Build 0)  -->
<!DOCTYPE svg PUBLIC "-//W3C//DTD SVG 1.1//EN" "http://www.w3.org/Graphics/SVG/1.1/DTD/svg11.dtd">
<svg version="1.1" id="Layer_1" xmlns="http://www.w3.org/2000/svg" xmlns:xlink="http://www.w3.org/1999/xlink" x="0px" y="0px"
	 width="40px" height="40px" viewBox="0 0 40 40" enable-background="new 0 0 40 40" xml:space="preserve">
<path fill="#2A6E55" d="M10.235,21.091l-0.051-1.092c0-2.758,1.096-5.404,3.046-7.354c1.95-1.949,4.597-3.046,7.354-3.046
	c1.625,0,3.159,0.377,4.55,1.04c-0.116,0.338-0.182,0.702-0.182,1.093c0,2.145,1.755,3.899,3.899,3.899
	c2.131,0,3.899-1.755,3.899-3.899c0-2.133-1.769-3.9-3.899-3.9c-0.807,0-1.561,0.247-2.197,0.676
	c-1.736-0.924-3.717-1.451-5.818-1.492H20.27c-3.333,0.081-6.514,1.43-8.877,3.792c-2.438,2.437-3.808,5.743-3.808,9.191
	l0.064,1.365L10.235,21.091z M27.934,10.813c0.243-0.244,0.573-0.382,0.918-0.382c0.729,0,1.301,0.572,1.301,1.301
	c0,0.715-0.571,1.3-1.301,1.3c-0.345,0-0.675-0.137-0.918-0.381c-0.244-0.244-0.382-0.574-0.382-0.919
	C27.552,11.386,27.688,11.056,27.934,10.813z"/>
<path fill="#2A6E55" d="M20.584,25.199c1.379,0,2.702-0.549,3.678-1.523c0.975-0.975,1.522-2.298,1.522-3.677
	s-0.55-2.702-1.522-3.677c-0.976-0.976-2.299-1.523-3.678-1.523s-2.702,0.548-3.678,1.523c-0.975,0.975-1.522,2.298-1.522,3.677
	s0.548,2.702,1.522,3.677C17.882,24.65,19.205,25.199,20.584,25.199z"/>
<path fill="#2A6E55" d="M33.584,19.999l-0.064-1.365l-2.588,0.273l0.053,1.092c0,2.758-1.096,5.403-3.047,7.354
	c-1.949,1.948-4.596,3.045-7.354,3.045c-1.625,0-3.159-0.377-4.55-1.039c0.116-0.338,0.182-0.702,0.182-1.094
	c0-2.145-1.755-3.898-3.9-3.898c-2.132,0-3.899,1.755-3.899,3.898c0,2.133,1.768,3.9,3.899,3.9c0.807,0,1.561-0.247,2.197-0.676
	c1.747,0.93,3.741,1.46,5.858,1.494h0.479c3.352-0.068,6.551-1.42,8.926-3.795C32.214,26.753,33.584,23.447,33.584,19.999z
	 M13.234,29.186c-0.243,0.244-0.573,0.383-0.919,0.383c-0.728,0-1.3-0.572-1.3-1.301c0-0.716,0.572-1.301,1.3-1.301
	c0.346,0,0.676,0.137,0.919,0.381c0.244,0.244,0.382,0.574,0.382,0.92C13.616,28.611,13.479,28.941,13.234,29.186z"/>
</svg>
