<?xml version="1.0" encoding="utf-8"?>
<!-- Generator: Adobe Illustrator 16.0.0, SVG Export Plug-In . SVG Version: 6.00 Build 0)  -->
<!DOCTYPE svg PUBLIC "-//W3C//DTD SVG 1.1//EN" "http://www.w3.org/Graphics/SVG/1.1/DTD/svg11.dtd">
<svg version="1.1" id="Layer_1" xmlns="http://www.w3.org/2000/svg" xmlns:xlink="http://www.w3.org/1999/xlink" x="0px" y="0px"
	 width="40px" height="40px" viewBox="0 0 40 40" enable-background="new 0 0 40 40" xml:space="preserve">
<g>
	<path fill="#FFFFFF" d="M11.731,26.967c-0.728,0-1.3,0.585-1.3,1.3c0,0.729,0.572,1.301,1.3,1.301c0.346,0,0.676-0.138,0.919-0.382
		c0.244-0.243,0.382-0.573,0.382-0.919c0-0.345-0.138-0.675-0.382-0.919C12.407,27.104,12.077,26.967,11.731,26.967z"/>
	<path fill="#FFFFFF" d="M11.731,32.167c-2.132,0-3.899-1.768-3.899-3.9c0-2.145,1.768-3.899,3.899-3.899
		c2.146,0,3.9,1.755,3.9,3.899c0,0.391-0.065,0.755-0.182,1.093c1.391,0.663,2.925,1.04,4.55,1.04c2.758,0,5.403-1.097,7.354-3.046
		c1.95-1.95,3.046-4.597,3.046-7.354l-0.052-1.092l2.587-0.273L33,19.999V7.015H20.252c2.102,0.041,4.082,0.568,5.818,1.492
		c0.638-0.429,1.392-0.676,2.197-0.676c2.132,0,3.9,1.768,3.9,3.9c0,2.145-1.769,3.899-3.9,3.899c-2.145,0-3.899-1.755-3.899-3.899
		c0-0.391,0.064-0.755,0.182-1.093c-1.391-0.663-2.925-1.04-4.55-1.04c-2.758,0-5.404,1.097-7.354,3.046
		c-1.95,1.95-3.046,4.597-3.046,7.354l0.052,1.092l-2.587,0.273L7,19.999v12.986h12.787c-2.117-0.034-4.111-0.564-5.858-1.494
		C13.292,31.92,12.538,32.167,11.731,32.167z M16.322,16.322c0.976-0.976,2.299-1.523,3.678-1.523s2.702,0.548,3.677,1.523
		c0.975,0.975,1.523,2.298,1.523,3.677s-0.549,2.702-1.523,3.677c-0.975,0.976-2.298,1.523-3.677,1.523s-2.702-0.548-3.678-1.523
		c-0.975-0.975-1.522-2.298-1.522-3.677S15.348,17.297,16.322,16.322z"/>
	<path fill="#FFFFFF" d="M19.685,7.015H7v12.984c0-3.448,1.37-6.754,3.808-9.192C13.172,8.444,16.352,7.096,19.685,7.015z"/>
	<path fill="#FFFFFF" d="M33,19.999c0,3.448-1.37,6.754-3.809,9.192c-2.375,2.374-5.575,3.726-8.926,3.794H33V19.999z"/>
	<path fill="#FFFFFF" d="M28.268,13.031c0.729,0,1.3-0.585,1.3-1.3c0-0.729-0.571-1.301-1.3-1.301c-0.345,0-0.675,0.138-0.919,0.382
		c-0.244,0.243-0.381,0.573-0.381,0.919c0,0.345,0.137,0.675,0.381,0.919S27.923,13.031,28.268,13.031z"/>
	<path fill="#2A6E55" d="M9.651,21.091L9.6,19.999c0-2.758,1.096-5.404,3.046-7.354c1.95-1.949,4.597-3.046,7.354-3.046
		c1.625,0,3.159,0.377,4.55,1.04c-0.117,0.338-0.182,0.702-0.182,1.093c0,2.145,1.755,3.899,3.899,3.899
		c2.132,0,3.9-1.755,3.9-3.899c0-2.133-1.769-3.9-3.9-3.9c-0.806,0-1.56,0.247-2.197,0.676c-1.736-0.924-3.717-1.451-5.818-1.492
		h-0.567c-3.333,0.081-6.513,1.43-8.877,3.792C8.37,13.245,7,16.551,7,19.999l0.064,1.365L9.651,21.091z M27.349,10.813
		c0.244-0.244,0.574-0.382,0.919-0.382c0.729,0,1.3,0.572,1.3,1.301c0,0.715-0.571,1.3-1.3,1.3c-0.345,0-0.675-0.137-0.919-0.381
		s-0.381-0.574-0.381-0.919C26.968,11.386,27.104,11.056,27.349,10.813z"/>
	<path fill="#2A6E55" d="M20,25.199c1.379,0,2.702-0.548,3.677-1.523c0.975-0.975,1.523-2.298,1.523-3.677s-0.549-2.702-1.523-3.677
		c-0.975-0.976-2.298-1.523-3.677-1.523s-2.702,0.548-3.678,1.523c-0.975,0.975-1.522,2.298-1.522,3.677s0.548,2.702,1.522,3.677
		C17.298,24.651,18.621,25.199,20,25.199z"/>
	<path fill="#2A6E55" d="M33,19.999l-0.065-1.365l-2.587,0.273l0.052,1.092c0,2.758-1.096,5.404-3.046,7.354
		c-1.95,1.949-4.596,3.046-7.354,3.046c-1.625,0-3.159-0.377-4.55-1.04c0.116-0.338,0.182-0.702,0.182-1.093
		c0-2.145-1.755-3.899-3.9-3.899c-2.132,0-3.899,1.755-3.899,3.899c0,2.133,1.768,3.9,3.899,3.9c0.807,0,1.561-0.247,2.197-0.676
		c1.747,0.93,3.741,1.46,5.858,1.494h0.479c3.351-0.068,6.551-1.42,8.926-3.794C31.63,26.753,33,23.447,33,19.999z M12.65,29.186
		c-0.243,0.244-0.573,0.382-0.919,0.382c-0.728,0-1.3-0.572-1.3-1.301c0-0.715,0.572-1.3,1.3-1.3c0.346,0,0.676,0.137,0.919,0.381
		c0.244,0.244,0.382,0.574,0.382,0.919C13.032,28.612,12.895,28.942,12.65,29.186z"/>
</g>
</svg>
