<?xml version="1.0" encoding="utf-8"?>
<!-- Generator: Adobe Illustrator 16.0.0, SVG Export Plug-In . SVG Version: 6.00 Build 0)  -->
<!DOCTYPE svg PUBLIC "-//W3C//DTD SVG 1.1//EN" "http://www.w3.org/Graphics/SVG/1.1/DTD/svg11.dtd">
<svg version="1.1" id="Layer_1" xmlns="http://www.w3.org/2000/svg" xmlns:xlink="http://www.w3.org/1999/xlink" x="0px" y="0px"
	 width="40px" height="40px" viewBox="0 0 40 40" enable-background="new 0 0 40 40" xml:space="preserve">
<g>
	<path fill="#FFFFFF" d="M29.932,18.65c0.053,0.459,0.094,0.905,0.094,1.35c0,0.447-0.041,0.879-0.094,1.311l2.82,2.24
		c0.16,0.127,0.236,0.318,0.238,0.518v-8.136c-0.002,0.198-0.078,0.391-0.238,0.518L29.932,18.65z"/>
	<path fill="#FFFFFF" d="M20.002,15.275c-1.241,0-2.431,0.498-3.309,1.384c-0.877,0.886-1.369,2.088-1.369,3.341
		c0,1.254,0.492,2.455,1.369,3.342c0.878,0.887,2.067,1.385,3.309,1.385c1.242,0,2.429-0.498,3.308-1.385
		c0.877-0.887,1.369-2.088,1.369-3.342c0-1.253-0.492-2.455-1.369-3.341C22.432,15.773,21.244,15.275,20.002,15.275z"/>
	<path fill="#FFFFFF" d="M23.344,7.067l0.494,3.578c0.842,0.337,1.563,0.796,2.258,1.322l3.328-1.35
		c0.295-0.122,0.656-0.001,0.816,0.297l2.672,4.67c0.041,0.073,0.064,0.15,0.078,0.228V6.5H22.676
		C23.01,6.5,23.291,6.743,23.344,7.067z"/>
	<path fill="#FFFFFF" d="M16.662,32.934l-0.495-3.576c-0.842-0.338-1.563-0.797-2.258-1.338l-3.328,1.363
		c-0.294,0.109-0.655,0-0.815-0.297l-2.673-4.67c-0.042-0.072-0.069-0.15-0.082-0.227V33.5H17.33
		C16.996,33.5,16.714,33.258,16.662,32.934z"/>
	<path fill="#FFFFFF" d="M30.24,29.086c-0.16,0.297-0.521,0.406-0.816,0.297l-3.328-1.363c-0.695,0.541-1.416,0.986-2.258,1.338
		l-0.494,3.576c-0.053,0.324-0.334,0.566-0.668,0.566H32.99v-9.313c-0.014,0.078-0.037,0.154-0.078,0.229L30.24,29.086z"/>
	<path fill="#FFFFFF" d="M10.072,21.311C10.019,20.879,9.978,20.447,9.978,20c0-0.444,0.041-0.891,0.094-1.35l-2.819-2.2
		c-0.157-0.125-0.236-0.313-0.242-0.508v8.116c0.006-0.195,0.085-0.383,0.242-0.508L10.072,21.311z"/>
	<path fill="#FFFFFF" d="M9.765,10.915c0.16-0.298,0.521-0.419,0.815-0.297l3.328,1.35c0.694-0.526,1.416-0.985,2.258-1.322
		l0.495-3.578C16.714,6.743,16.996,6.5,17.33,6.5H7.01v9.312c0.013-0.077,0.04-0.154,0.082-0.227L9.765,10.915z"/>
	<path fill="#2C6F56" d="M30.24,10.915c-0.16-0.298-0.521-0.419-0.816-0.297l-3.328,1.35c-0.695-0.526-1.416-0.985-2.258-1.322
		l-0.494-3.578C23.291,6.743,23.01,6.5,22.676,6.5H17.33c-0.334,0-0.615,0.243-0.668,0.567l-0.495,3.578
		c-0.842,0.337-1.563,0.796-2.258,1.322l-3.328-1.35c-0.294-0.122-0.655-0.001-0.815,0.297l-2.673,4.67
		c-0.042,0.072-0.069,0.149-0.082,0.227v0.131c0.006,0.195,0.085,0.383,0.242,0.508l2.819,2.2c-0.053,0.459-0.094,0.905-0.094,1.35
		c0,0.447,0.041,0.879,0.094,1.311l-2.819,2.24c-0.157,0.125-0.236,0.313-0.242,0.508v0.131c0.013,0.076,0.04,0.154,0.082,0.227
		l2.673,4.67c0.16,0.297,0.521,0.406,0.815,0.297l3.328-1.363c0.694,0.541,1.416,1,2.258,1.338l0.495,3.576
		c0.053,0.324,0.334,0.566,0.668,0.566h5.346c0.334,0,0.615-0.242,0.668-0.566l0.494-3.576c0.842-0.352,1.563-0.797,2.258-1.338
		l3.328,1.363c0.295,0.109,0.656,0,0.816-0.297l2.672-4.67c0.041-0.074,0.064-0.15,0.078-0.229v-0.119
		c-0.002-0.199-0.078-0.391-0.238-0.518l-2.82-2.24c0.053-0.432,0.094-0.863,0.094-1.311c0-0.444-0.041-0.891-0.094-1.35l2.82-2.2
		c0.16-0.127,0.236-0.319,0.238-0.518v-0.12c-0.014-0.077-0.037-0.154-0.078-0.228L30.24,10.915z M23.311,23.342
		c-0.879,0.887-2.066,1.385-3.308,1.385c-1.241,0-2.431-0.498-3.309-1.385c-0.877-0.887-1.369-2.088-1.369-3.342
		c0-1.253,0.492-2.455,1.369-3.341c0.878-0.886,2.067-1.384,3.309-1.384c1.242,0,2.429,0.498,3.308,1.384
		c0.877,0.886,1.369,2.088,1.369,3.341C24.68,21.254,24.188,22.455,23.311,23.342z"/>
</g>
</svg>
