<svg width="40" height="40" viewBox="0 0 40 40" fill="none" xmlns="http://www.w3.org/2000/svg">
<path d="M20.003 24.225C18.7624 24.225 17.5726 23.7272 16.6954 22.8411C15.8181 21.955 15.3253 20.7531 15.3253 19.5C15.3253 18.2469 15.8181 17.045 16.6954 16.1589C17.5726 15.2728 18.7624 14.775 20.003 14.775C21.2435 14.775 22.4333 15.2728 23.3105 16.1589C24.1878 17.045 24.6806 18.2469 24.6806 19.5C24.6806 20.7531 24.1878 21.955 23.3105 22.8411C22.4333 23.7272 21.2435 24.225 20.003 24.225ZM29.9329 20.8095C29.9864 20.3775 30.0265 19.9455 30.0265 19.5C30.0265 19.0545 29.9864 18.609 29.9329 18.15L32.7529 15.9495C33.0068 15.747 33.0736 15.3825 32.9132 15.0855L30.2403 10.4145C30.0799 10.1175 29.7191 9.996 29.4251 10.1175L26.0973 11.4675C25.4023 10.941 24.6806 10.482 23.8386 10.1445L23.3441 6.567C23.2907 6.243 23.01 6 22.6759 6H17.33C16.9959 6 16.7152 6.243 16.6618 6.567L16.1673 10.1445C15.3253 10.482 14.6036 10.941 13.9087 11.4675L10.5808 10.1175C10.2868 9.996 9.92597 10.1175 9.7656 10.4145L7.09266 15.0855C6.91892 15.3825 6.99911 15.747 7.25304 15.9495L10.073 18.15C10.0195 18.609 9.97943 19.0545 9.97943 19.5C9.97943 19.9455 10.0195 20.3775 10.073 20.8095L7.25304 23.0505C6.99911 23.253 6.91892 23.6175 7.09266 23.9145L9.7656 28.5855C9.92597 28.8825 10.2868 28.9905 10.5808 28.8825L13.9087 27.519C14.6036 28.059 15.3253 28.518 16.1673 28.8555L16.6618 32.433C16.7152 32.757 16.9959 33 17.33 33H22.6759C23.01 33 23.2907 32.757 23.3441 32.433L23.8386 28.8555C24.6806 28.5045 25.4023 28.059 26.0973 27.519L29.4251 28.8825C29.7191 28.9905 30.0799 28.8825 30.2403 28.5855L32.9132 23.9145C33.0736 23.6175 33.0068 23.253 32.7529 23.0505L29.9329 20.8095Z" fill="#91C273"/>
</svg>
