<?xml version="1.0" encoding="utf-8"?>
<!-- Generator: Adobe Illustrator 16.0.0, SVG Export Plug-In . SVG Version: 6.00 Build 0)  -->
<!DOCTYPE svg PUBLIC "-//W3C//DTD SVG 1.1//EN" "http://www.w3.org/Graphics/SVG/1.1/DTD/svg11.dtd">
<svg version="1.1" id="Layer_1" xmlns="http://www.w3.org/2000/svg" xmlns:xlink="http://www.w3.org/1999/xlink" x="0px" y="0px"
	 width="40px" height="40px" viewBox="0 0 40 40" enable-background="new 0 0 40 40" xml:space="preserve">
<path fill="#2A6E55" d="M20.48,18.416c-0.403,0-0.79,0.16-1.076,0.445c-0.285,0.286-0.445,0.674-0.445,1.076
	c0,0.403,0.16,0.79,0.445,1.077c0.286,0.284,0.673,0.443,1.076,0.443c0.402,0,0.791-0.159,1.076-0.443
	C21.84,20.727,22,20.34,22,19.937c0-0.402-0.16-0.79-0.444-1.076C21.271,18.576,20.882,18.416,20.48,18.416z"/>
<path fill="#2A6E55" d="M32.313,8.104c-2.176-2.175-6.893-1.201-11.834,2.038C15.536,6.903,10.82,5.929,8.645,8.104
	s-1.201,6.891,2.038,11.834c-3.239,4.943-4.213,9.66-2.038,11.833c2.175,2.176,6.891,1.201,11.834-2.037
	c4.942,3.238,9.659,4.213,11.834,2.037c2.174-2.174,1.201-6.891-2.039-11.833C33.515,14.994,34.487,10.278,32.313,8.104z
	 M10.806,10.264c1.126-1.141,3.908-0.38,7.148,1.719c-0.958,0.791-1.916,1.643-2.859,2.57c-0.928,0.943-1.779,1.902-2.57,2.859
	C10.425,14.172,9.664,11.39,10.806,10.264z M10.806,29.611c-1.142-1.127-0.381-3.909,1.719-7.148
	c0.791,0.958,1.643,1.916,2.57,2.859c0.943,0.927,1.901,1.779,2.859,2.57C14.714,29.991,11.932,30.753,10.806,29.611z
	 M17.254,23.162c-1.063-1.064-2.038-2.159-2.904-3.225c0.866-1.064,1.841-2.16,2.904-3.225c1.065-1.064,2.16-2.039,3.226-2.905
	c1.064,0.866,2.16,1.841,3.225,2.905s2.038,2.16,2.905,3.225c-0.867,1.065-1.842,2.161-2.905,3.225s-2.16,2.038-3.225,2.904
	C19.414,25.2,18.319,24.227,17.254,23.162z M30.153,29.611c-1.127,1.142-3.909,0.38-7.149-1.719c0.958-0.791,1.916-1.645,2.86-2.57
	c0.927-0.943,1.779-1.901,2.57-2.859C30.533,25.702,31.294,28.484,30.153,29.611z M28.435,17.412
	c-0.791-0.957-1.644-1.916-2.57-2.859c-0.943-0.928-1.901-1.779-2.859-2.57c3.24-2.099,6.023-2.86,7.148-1.719
	C31.294,11.39,30.533,14.172,28.435,17.412z"/>
</svg>
