<?xml version="1.0" encoding="utf-8"?>
<!-- Generator: Adobe Illustrator 16.0.0, SVG Export Plug-In . SVG Version: 6.00 Build 0)  -->
<!DOCTYPE svg PUBLIC "-//W3C//DTD SVG 1.1//EN" "http://www.w3.org/Graphics/SVG/1.1/DTD/svg11.dtd">
<svg version="1.1" id="Layer_1" xmlns="http://www.w3.org/2000/svg" xmlns:xlink="http://www.w3.org/1999/xlink" x="0px" y="0px"
	 width="40px" height="40px" viewBox="0 0 40 40" enable-background="new 0 0 40 40" xml:space="preserve">
<path fill="#2A6E55" d="M24.785,32.183v-1.398h-8.572v1.398c0,0.371,0.151,0.729,0.419,0.99c0.268,0.262,0.631,0.41,1.01,0.41h5.713
	c0.379,0,0.742-0.146,1.012-0.41C24.635,32.911,24.785,32.554,24.785,32.183z"/>
<path fill="#2A6E55" d="M10.5,15.383c0,3.332,1.7,6.258,4.286,8.036v3.164c0,0.371,0.149,0.727,0.418,0.99
	c0.268,0.264,0.631,0.41,1.01,0.41h8.572c0.379,0,0.74-0.146,1.01-0.41c0.268-0.264,0.418-0.619,0.418-0.99v-3.164
	c2.586-1.777,4.287-4.704,4.287-8.036c0-2.599-1.057-5.092-2.932-6.93s-4.418-2.87-7.069-2.87c-2.652,0-5.196,1.032-7.071,2.87
	S10.5,12.785,10.5,15.383z"/>
</svg>
