<?xml version="1.0" encoding="utf-8"?>
<!-- Generator: Adobe Illustrator 16.0.0, SVG Export Plug-In . SVG Version: 6.00 Build 0)  -->
<!DOCTYPE svg PUBLIC "-//W3C//DTD SVG 1.1//EN" "http://www.w3.org/Graphics/SVG/1.1/DTD/svg11.dtd">
<svg version="1.1" id="Layer_1" xmlns="http://www.w3.org/2000/svg" xmlns:xlink="http://www.w3.org/1999/xlink" x="0px" y="0px"
	 width="40px" height="40px" viewBox="0 0 40 40" enable-background="new 0 0 40 40" xml:space="preserve">
<g>
	<path fill="#FFFFFF" d="M30.5,6H19.833c2.651,0,5.195,1.032,7.07,2.87s2.93,4.331,2.93,6.93c0,3.332-1.7,6.258-4.286,8.036V27
		c0,0.371-0.15,0.727-0.418,0.99c-0.269,0.263-0.631,0.41-1.01,0.41h-8.572c-0.379,0-0.742-0.147-1.01-0.41
		c-0.269-0.264-0.418-0.619-0.418-0.99v-3.164c-2.586-1.778-4.286-4.704-4.286-8.036c0-2.599,1.054-5.092,2.929-6.93
		S17.181,6,19.833,6H9.5v28h7.476c-0.379,0-0.742-0.147-1.01-0.41s-0.419-0.619-0.419-0.99V31.2h8.572V32.6
		c0,0.371-0.151,0.728-0.419,0.99C23.432,33.853,23.068,34,22.689,34H30.5V6z"/>
	<path fill="#2A6E55" d="M24.119,32.6V31.2h-8.572V32.6c0,0.371,0.151,0.728,0.419,0.99S16.597,34,16.976,34h5.714
		c0.379,0,0.742-0.147,1.011-0.41C23.968,33.327,24.119,32.971,24.119,32.6z"/>
	<path fill="#2A6E55" d="M9.833,15.8c0,3.332,1.7,6.258,4.286,8.036V27c0,0.371,0.149,0.727,0.418,0.99
		c0.268,0.263,0.631,0.41,1.01,0.41h8.572c0.379,0,0.741-0.147,1.01-0.41c0.268-0.264,0.418-0.619,0.418-0.99v-3.164
		c2.586-1.778,4.286-4.704,4.286-8.036c0-2.599-1.055-5.092-2.93-6.93S22.484,6,19.833,6c-2.652,0-5.196,1.032-7.071,2.87
		S9.833,13.201,9.833,15.8z"/>
</g>
</svg>
