<?xml version="1.0" encoding="utf-8"?>
<!-- Generator: Adobe Illustrator 16.0.0, SVG Export Plug-In . SVG Version: 6.00 Build 0)  -->
<!DOCTYPE svg PUBLIC "-//W3C//DTD SVG 1.1//EN" "http://www.w3.org/Graphics/SVG/1.1/DTD/svg11.dtd">
<svg version="1.1" id="Layer_1" xmlns="http://www.w3.org/2000/svg" xmlns:xlink="http://www.w3.org/1999/xlink" x="0px" y="0px"
	 width="40px" height="40px" viewBox="0 0 40 40" enable-background="new 0 0 40 40" xml:space="preserve">
<path fill="#2A6E55" d="M22.291,20.898V8.108c0-2.718-2.04-4.796-4.709-4.796c-2.668,0-4.708,2.078-4.708,4.796v12.791
	c-3.454,2.718-4.238,7.674-1.57,11.19s7.534,4.315,10.987,1.599c3.453-2.718,4.237-7.674,1.569-11.19
	C23.39,21.857,22.919,21.378,22.291,20.898z M19.151,14.983h-3.139V8.108c0-0.959,0.628-1.599,1.569-1.599s1.569,0.64,1.569,1.599
	L19.151,14.983L19.151,14.983z"/>
<path fill="#2A6E55" d="M28.569,11.307h3.14v9.591h-3.14V11.307z M28.569,24.096h3.14v3.198h-3.14V24.096z"/>
</svg>
