<?xml version="1.0" encoding="utf-8"?>
<!-- Generator: Adobe Illustrator 16.0.0, SVG Export Plug-In . SVG Version: 6.00 Build 0)  -->
<!DOCTYPE svg PUBLIC "-//W3C//DTD SVG 1.1//EN" "http://www.w3.org/Graphics/SVG/1.1/DTD/svg11.dtd">
<svg version="1.1" id="Layer_1" xmlns="http://www.w3.org/2000/svg" xmlns:xlink="http://www.w3.org/1999/xlink" x="0px" y="0px"
	 width="40px" height="40px" viewBox="0 0 40 40" enable-background="new 0 0 40 40" xml:space="preserve">
<g>
	<path fill="#FFFFFF" d="M16.54,5.26c-0.941,0-1.569,0.64-1.569,1.599v6.875h3.139V6.858C18.109,5.899,17.481,5.26,16.54,5.26z"/>
	<path fill="#FFFFFF" d="M31.833,1.563H8.167v32.5h23.666V1.563z M21.249,32.438c-3.453,2.718-8.319,1.919-10.987-1.598
		c-2.668-3.518-1.884-8.474,1.57-11.191V6.858c0-2.718,2.04-4.796,4.708-4.796c2.669,0,4.709,2.078,4.709,4.796v12.79
		c0.628,0.479,1.099,0.959,1.569,1.599C25.486,24.765,24.702,29.721,21.249,32.438z M30.667,26.044h-3.14v-3.198h3.14V26.044z
		 M30.667,19.648h-3.14v-9.592h3.14V19.648z"/>
	<path fill="#2A6E55" d="M21.249,19.648V6.858c0-2.718-2.04-4.796-4.709-4.796c-2.668,0-4.708,2.078-4.708,4.796v12.79
		c-3.454,2.718-4.238,7.674-1.57,11.191c2.668,3.517,7.534,4.315,10.987,1.598c3.453-2.717,4.237-7.673,1.569-11.19
		C22.348,20.607,21.877,20.128,21.249,19.648z M18.109,13.733h-3.139V6.858c0-0.959,0.628-1.599,1.569-1.599s1.569,0.64,1.569,1.599
		V13.733z"/>
	<rect x="27.527" y="10.057" fill="#2A6E55" width="3.14" height="9.592"/>
	<rect x="27.527" y="22.846" fill="#2A6E55" width="3.14" height="3.198"/>
</g>
</svg>
