<?xml version="1.0" encoding="utf-8"?>
<!-- Generator: Adobe Illustrator 16.0.0, SVG Export Plug-In . SVG Version: 6.00 Build 0)  -->
<!DOCTYPE svg PUBLIC "-//W3C//DTD SVG 1.1//EN" "http://www.w3.org/Graphics/SVG/1.1/DTD/svg11.dtd">
<svg version="1.1" id="Layer_1" xmlns="http://www.w3.org/2000/svg" xmlns:xlink="http://www.w3.org/1999/xlink" x="0px" y="0px"
	 width="40px" height="40px" viewBox="0 0 40 40" enable-background="new 0 0 40 40" xml:space="preserve">
<g>
	<path fill="#FFFFFF" d="M19.11,7.34c-1.785,0-3.5,0.711-4.763,1.977s-1.973,2.981-1.973,4.771s0.71,3.506,1.973,4.771
		s2.978,1.977,4.763,1.977c3.708,0,6.736-3.02,6.736-6.748C25.847,10.358,22.818,7.34,19.11,7.34z M22.152,17.607l-4.431-2.56V9.914
		h2.084v3.924l3.388,1.961L22.152,17.607z"/>
	<path fill="#FFFFFF" d="M33.167,3.667H6.834v32.666h20.609v-4.158H10.777H8v-2.783h2.777h16.666v-4.173L33,30.783l-5.541,5.55
		h5.708V3.667z M19.11,23.826c-2.577,0-5.051-1.025-6.874-2.852c-1.823-1.827-2.848-4.304-2.848-6.887
		c0-5.37,4.361-9.739,9.722-9.739c5.361,0,9.723,4.369,9.723,9.739C28.833,19.472,24.472,23.826,19.11,23.826z"/>
	<path fill="#2A6E55" d="M19.11,4.349c-5.36,0-9.722,4.369-9.722,9.739c0,2.583,1.024,5.06,2.848,6.887
		c1.823,1.826,4.297,2.852,6.874,2.852c5.361,0,9.723-4.354,9.723-9.738C28.833,8.718,24.472,4.349,19.11,4.349z M19.11,20.836
		c-1.785,0-3.5-0.711-4.763-1.977s-1.973-2.981-1.973-4.771s0.71-3.506,1.973-4.771S17.325,7.34,19.11,7.34
		c3.708,0,6.736,3.019,6.736,6.748C25.847,17.816,22.818,20.836,19.11,20.836z"/>
	<polygon fill="#2A6E55" points="19.806,9.914 17.722,9.914 17.722,15.048 22.152,17.607 23.193,15.799 19.806,13.838 	"/>
	<polygon fill="#2A6E55" points="27.443,25.219 27.443,29.392 10.777,29.392 8,29.392 8,32.175 10.777,32.175 27.443,32.175 
		27.443,36.333 27.459,36.333 33,30.783 	"/>
</g>
</svg>
