<?xml version="1.0" encoding="utf-8"?>
<!-- Generator: Adobe Illustrator 16.0.0, SVG Export Plug-In . SVG Version: 6.00 Build 0)  -->
<!DOCTYPE svg PUBLIC "-//W3C//DTD SVG 1.1//EN" "http://www.w3.org/Graphics/SVG/1.1/DTD/svg11.dtd">
<svg version="1.1" id="Layer_1" xmlns="http://www.w3.org/2000/svg" xmlns:xlink="http://www.w3.org/1999/xlink" x="0px" y="0px"
	 width="40px" height="40px" viewBox="0 0 40 40" enable-background="new 0 0 40 40" xml:space="preserve">
<path fill="#2A6E55" d="M19.86,4.682c-5.36,0-9.722,4.369-9.722,9.739c0,2.583,1.024,5.06,2.848,6.887
	c1.823,1.826,4.297,2.853,6.874,2.853c5.361,0,9.723-4.354,9.723-9.738C29.583,9.051,25.223,4.682,19.86,4.682z M19.86,21.169
	c-1.785,0-3.5-0.711-4.763-1.977c-1.263-1.266-1.973-2.981-1.973-4.771s0.71-3.506,1.973-4.771c1.263-1.265,2.978-1.977,4.763-1.977
	c3.708,0,6.736,3.019,6.736,6.748C26.598,18.149,23.568,21.169,19.86,21.169z M20.556,10.247h-2.083v5.134l4.43,2.559l1.041-1.808
	l-3.388-1.961V10.247z M28.193,25.552v4.174H11.527H8.75v2.782h2.777h16.667v4.158h0.016l5.541-5.55L28.193,25.552z"/>
</svg>
